{"title":"Looper.2012.BDRip.DivX.AC3-Atilla82","uid":7918362,"size":1477496110,"categoryP":"video","categoryS":"movies","magnet":"?xt=urn:btih:46ce9539950fbc9c6deb35454bfa4c42898c4111&amp;dn=Looper.2012.BDRip.DivX.AC3-Atilla82&amp;tr=udp%3A%2F%2Ftracker.openbittorrent.com%3A80&amp;tr=udp%3A%2F%2Fopen.demonii.com%3A1337&amp;tr=udp%3A%2F%2Ftracker.coppersurfer.tk%3A6969&amp;tr=udp%3A%2F%2Fexodus.desync.com%3A6969","seeders":0,"leechers":1,"uploader":"Atilla82","files":7,"time":1355417423,"description":"Looper.2012.BDRip.DivX.AC3-Atilla82.avi\n\n\n\n\nLooper (2012)\n &lt;a href=&quot;\nhttp://www.imdb.com/title/tt1276104/&quot; rel=&quot;nofollow&quot; target=&quot;_NEW&quot;&gt;\nhttp://www.imdb.com/title/tt1276104/&lt;/a&gt;\n\n\nIn 2074, when the mob wants to get rid of someone, \nthe target is sent 30 years into the past, \nwhere a hired gun awaits. Someone like Joe, \nwho one day learns the mob wants to 'close the loop' \nby transporting back Joe's future self.\n\n\n\nJoseph Gordon-Levitt\t ...\tJoe\n\nBruce Willis\t ...\tOld Joe\n\nEmily Blunt\t ...\tSara\n\nPaul Dano\t ...\tSeth\n\nNoah Segan\t ...\tKid Blue\n\nPiper Perabo\t ...\tSuzie\n\nJeff Daniels\t ...\tAbe\n\nPierce Gagnon\t ...\tCid\n\n\n\n\n\n\nGeneral\nComplete name                            : Looper.2012.BDRip.DivX.AC3-Atilla82.avi\nFormat                                   : AVI\nFormat/Info                              : Audio Video Interleave\nFile size                                : 1.38 GiB\nDuration                                 : 1h 58mn\nOverall bit rate                         : 1 657 Kbps\nWriting application                      : VirtualDubMod 1.5.10.2 (build 2540/release)\nWriting library                          : VirtualDubMod build 2540/release\n\nVideo\nID                                       : 0\nFormat                                   : MPEG-4 Visual\nFormat settings, BVOP                    : 1\nFormat settings, QPel                    : No\nFormat settings, GMC                     : No warppoints\nFormat settings, Matrix                  : Default (H.263)\nMuxing mode                              : Packed bitstream\nCodec ID                                 : DX50\nCodec ID/Hint                            : DivX 5\nDuration                                 : 1h 58mn\nBit rate                                 : 1 199 Kbps\nWidth                                    : 720 pixels\nHeight                                   : 308 pixels\nDisplay aspect ratio                     : 2.35:1\nFrame rate                               : 23.976 fps\nColor space                              : YUV\nChroma subsampling                       : 4:2:0\nBit depth                                : 8 bits\nScan type                                : Progressive\nCompression mode                         : Lossy\nBits/(Pixel*Frame)                       : 0.226\nStream size                              : 1 020 MiB (72%)\nWriting library                          : DivX 3330\n\nAudio\nID                                       : 1\nFormat                                   : AC-3\nFormat/Info                              : Audio Coding 3\nMode extension                           : CM (complete main)\nFormat settings, Endianness              : Big\nCodec ID                                 : 2000\nDuration                                 : 1h 58mn\nBit rate mode                            : Constant\nBit rate                                 : 448 Kbps\nChannel(s)                               : 6 channels\nChannel positions                        : Front: L C R, Side: L R, LFE\nSampling rate                            : 48.0 KHz\nBit depth                                : 16 bits\nCompression mode                         : Lossy\nStream size                              : 381 MiB (27%)\nAlignment                                : Split accross interleaves\nInterleave, duration                     : 42 ms (1.00 video frame)\nInterleave, preload duration             : 500 ms\n\n\n\n\nSCREENSHOTS &lt;a href=&quot;\nhttp://www.pohrani.com/f/37/Pa/3H8gEqq9/looper2012bdripdivxac3-a.jpg&quot; rel=&quot;nofollow&quot; target=&quot;_NEW&quot;&gt;\nhttp://www.pohrani.com/f/37/Pa/3H8gEqq9/looper2012bdripdivxac3-a.jpg&lt;/a&gt;\n\n\n\n\n","torrent":{"xt":"urn:btih:46ce9539950fbc9c6deb35454bfa4c42898c4111","amp;dn":"Looper.2012.BDRip.DivX.AC3-Atilla82","amp;tr":["udp%3A%2F%2Ftracker.openbittorrent.com%3A80","udp%3A%2F%2Fopen.demonii.com%3A1337","udp%3A%2F%2Ftracker.coppersurfer.tk%3A6969","udp%3A%2F%2Fexodus.desync.com%3A6969"],"infoHash":"46ce9539950fbc9c6deb35454bfa4c42898c4111","infoHashBuffer":{"type":"Buffer","data":[70,206,149,57,149,15,188,156,109,235,53,69,75,250,76,66,137,140,65,17]},"announce":[],"urlList":[]}}